<?xml version="1.0" encoding="UTF-8" standalone="no"?>
<svg width="1024" height="1024" viewBox="0 0 1024 1024" xmlns="http://www.w3.org/2000/svg" xmlns:xlink="http://www.w3.org/1999/xlink" version="1.1">
  <defs>
    <!-- 背景渐变 -->
    <linearGradient id="bgGradient" x1="0%" y1="0%" x2="100%" y2="100%">
      <stop offset="0%" stop-color="#1E133A" />
      <stop offset="100%" stop-color="#090912" />
    </linearGradient>
    
    <!-- 光线渐变 -->
    <radialGradient id="lightSource" cx="25%" cy="50%" r="70%" fx="25%" fy="50%">
      <stop offset="0%" stop-color="white" stop-opacity="0.7" />
      <stop offset="100%" stop-color="white" stop-opacity="0" />
    </radialGradient>
    
    <!-- 镜头渐变 -->
    <radialGradient id="lensGradient" cx="50%" cy="50%" r="50%" fx="40%" fy="40%">
      <stop offset="0%" stop-color="#444" />
      <stop offset="85%" stop-color="#111" />
      <stop offset="100%" stop-color="#000" />
    </radialGradient>
    
    <!-- 光线发光滤镜 -->
    <filter id="glow" x="-20%" y="-20%" width="140%" height="140%">
      <feGaussianBlur stdDeviation="10" result="blur" />
      <feComposite in="SourceGraphic" in2="blur" operator="over" />
    </filter>
    
    <!-- 增强的光线发光滤镜 -->
    <filter id="enhancedGlow" x="-30%" y="-30%" width="160%" height="160%">
      <feGaussianBlur stdDeviation="15" result="blur" />
      <feComposite in="SourceGraphic" in2="blur" operator="over" />
    </filter>
  </defs>
  
  <!-- 圆角背景 -->
  <rect x="0" y="0" width="1024" height="1024" rx="230" ry="230" fill="url(#bgGradient)" />
  
  <!-- 光效底层 -->
  <circle cx="256" cy="512" r="400" fill="url(#lightSource)" opacity="0.3" />
  
  <!-- 多彩光线 - 更丰富的颜色 -->
  <!-- 静谧蓝光线 -->
  <path d="M256,512 L800,260" stroke="#6FCFF5" stroke-width="65" stroke-linecap="round" opacity="0.8" filter="url(#glow)" />
  
  <!-- 玫瑰粉光线 -->
  <path d="M256,512 L800,330" stroke="#F5A7A7" stroke-width="65" stroke-linecap="round" opacity="0.8" filter="url(#glow)" />
  
  <!-- 薄荷绿光线 -->
  <path d="M256,512 L800,400" stroke="#7FFFBF" stroke-width="65" stroke-linecap="round" opacity="0.8" filter="url(#glow)" />
  
  <!-- 翡翠绿光线 -->
  <path d="M256,512 L800,470" stroke="#00CCB3" stroke-width="65" stroke-linecap="round" opacity="0.8" filter="url(#glow)" />
  
  <!-- 亮蓝光线 -->
  <path d="M256,512 L800,540" stroke="#33AAFF" stroke-width="65" stroke-linecap="round" opacity="0.8" filter="url(#glow)" />
  
  <!-- 暖阳黄光线 -->
  <path d="M256,512 L800,610" stroke="#FEE54C" stroke-width="65" stroke-linecap="round" opacity="0.8" filter="url(#glow)" />
  
  <!-- 橙色光线 -->
  <path d="M256,512 L800,680" stroke="#FFA066" stroke-width="65" stroke-linecap="round" opacity="0.8" filter="url(#glow)" />
  
  <!-- 云霞紫光线 -->
  <path d="M256,512 L800,750" stroke="#B366E5" stroke-width="65" stroke-linecap="round" opacity="0.8" filter="url(#glow)" />
  
  <!-- 改进的人脸剪影 - 更容易辨认的简化风格 -->
  <path d="M700,350 
           C730,380 750,420 760,460 
           C770,500 770,540 760,580 
           C750,620 730,650 700,680 
           C680,700 650,720 620,730
           C640,710 650,690 660,670
           C670,650 680,630 680,600
           C680,570 670,540 660,520" 
        fill="#ffffff" opacity="0.15" /> <!-- 添加半透明填充使轮廓更明显 -->
        
  <!-- 简化的脸部特征 -->
  <ellipse cx="700" cy="500" rx="60" ry="150" fill="#ffffff" opacity="0.08" /> <!-- 简化的脸部形状 -->
  
  <!-- 相机镜头 - 保持不变但稍作优化 -->
  <circle cx="256" cy="512" r="100" fill="url(#lensGradient)" stroke="white" stroke-width="6" />
  <circle cx="256" cy="512" r="70" fill="none" stroke="white" stroke-width="2" />
  <circle cx="256" cy="512" r="30" fill="none" stroke="white" stroke-width="1.5" />
  
  <!-- 镜头反光点 -->
  <circle cx="236" cy="492" r="15" fill="white" opacity="0.7" />
  
  <!-- 额外增加光效元素 -->
  <circle cx="256" cy="512" r="150" fill="none" stroke="white" stroke-width="1" opacity="0.3" />
  <circle cx="256" cy="512" r="180" fill="none" stroke="white" stroke-width="1" opacity="0.2" />
  
  <!-- 光线散射效果 -->
  <path d="M256,462 L256,562" stroke="white" stroke-width="3" opacity="0.3" />
  <path d="M206,512 L306,512" stroke="white" stroke-width="3" opacity="0.3" />
  <path d="M220,476 L292,548" stroke="white" stroke-width="2" opacity="0.2" />
  <path d="M220,548 L292,476" stroke="white" stroke-width="2" opacity="0.2" />
</svg> 